<?xml version="1.0" encoding="UTF-8"?>
<svg width="163px" height="55px" viewBox="0 0 163 55" version="1.1" xmlns="http://www.w3.org/2000/svg" xmlns:xlink="http://www.w3.org/1999/xlink">
    <!-- Generator: sketchtool 63.1 (101010) - https://sketch.com -->
    <title>CAAC8C90-4A9B-4BBA-B315-CA64FD35E677</title>
    <desc>Created with sketchtool.</desc>
    <defs>
        <polygon id="path-1" points="0.000323412698 0.252547059 31.2542798 0.252547059 31.2542798 54.3529412 0.000323412698 54.3529412"></polygon>
        <polygon id="path-3" points="0 54.3529412 162.467016 54.3529412 162.467016 0.252352941 0 0.252352941"></polygon>
    </defs>
    <g id="Page-1" stroke="none" stroke-width="1" fill="none" fill-rule="evenodd">
        <g id="Home-Ayuntamiento" transform="translate(-420.000000, -23.000000)">
            <g id="logo" transform="translate(420.000000, 23.000000)">
                <polygon id="Fill-1" fill="#ABD7C7" points="5.09193889 39.6416706 5.09193889 39.6416706 5.09193889 48.8143765 17.2658397 52.4747882 27.7715778 47.0802588 28.6098635 18.9506706 31.2547325 13.2352"></polygon>
                <g id="Group-16" transform="translate(0.000000, 0.394706)">
                    <g id="Group-4">
                        <mask id="mask-2" fill="white">
                            <use xlink:href="#path-1"></use>
                        </mask>
                        <g id="Clip-3"></g>
                        <path d="M17.2660337,3.64831176 C17.2660337,1.59907647 18.3779266,0.252547059 20.6612202,0.252547059 C22.885006,0.252547059 24.0557599,1.59907647 24.0557599,3.64831176 C24.0557599,5.75578235 22.885006,7.10295882 20.6612202,7.10295882 C18.3779266,7.10295882 17.2660337,5.75578235 17.2660337,3.64831176 M7.02355357,3.64831176 C7.02355357,1.59907647 8.13544643,0.252547059 10.4180933,0.252547059 C12.6425258,0.252547059 13.8132798,1.59907647 13.8132798,3.64831176 C13.8132798,5.75578235 12.6425258,7.10295882 10.4180933,7.10295882 C8.13544643,7.10295882 7.02355357,5.75578235 7.02355357,3.64831176 M0.000323412698,39.3640176 L0.000323412698,12.8410765 L5.09213294,12.8410765 L5.09213294,39.2469 C5.09213294,45.5706059 8.54553373,49.6690765 15.5687639,49.6690765 C22.7097163,49.6690765 26.104256,45.5706059 26.104256,39.2469 L26.104256,12.8410765 L31.2542798,12.8410765 L31.2542798,39.3640176 C31.2542798,48.7903706 25.3429425,54.3531353 15.5687639,54.3531353 C5.969875,54.3531353 0.000323412698,48.7903706 0.000323412698,39.3640176" id="Fill-2" fill="#077089" mask="url(#mask-2)"></path>
                    </g>
                    <path d="M59.5633048,25.4125882 L57.469531,16.7057647 L56.5723841,16.7057647 L54.4786103,25.443 L59.5633048,25.4125882 Z M60.4306976,29.0031176 L53.6112175,29.0031176 L52.4747452,33.7913529 L48.2865508,33.7913529 L53.7903881,12.8454118 L60.221773,12.8454118 L65.7851183,33.7913529 L61.5678167,33.7913529 L60.4306976,29.0031176 Z" id="Fill-5" fill="#077089"></path>
                    <path d="M71.798654,23.1988059 C71.798654,25.3832765 72.6660468,26.2503353 74.2811698,26.2503353 C75.8665389,26.2503353 76.7339317,25.3832765 76.7339317,23.1988059 C76.7041778,21.0441 75.8367849,20.1162176 74.2811698,20.1162176 C72.6660468,20.1162176 71.798654,21.0441 71.798654,23.1988059 M78.7080429,34.8982765 C78.7080429,34.2098059 78.1996381,33.6721 76.7940865,33.6721 L72.0677333,33.6721 L71.6492373,33.6721 L71.2307413,34.1502765 C70.8419992,34.5689235 70.631781,35.0186294 70.631781,35.4068647 C70.631781,36.3942765 71.8581619,36.9332765 73.9823365,36.9332765 C76.9435032,36.9332765 78.7080429,36.0053941 78.7080429,34.8982765 M82.5967571,34.5986882 C82.5967571,37.7712176 78.977769,40.0747471 73.6233484,40.0747471 C70.153777,40.0747471 66.8032214,38.9074529 66.8032214,35.8850412 C66.8032214,34.9882176 67.1919635,34.1806882 67.8206778,33.5213353 L68.7475786,32.4750412 C68.3588365,32.0259824 68.1195111,31.4876294 68.1195111,30.7991588 C68.1195111,30.0207471 68.5380071,29.3924529 69.0768127,28.7648059 L69.8846976,27.7767471 C68.7178246,26.8191 67.9700944,25.3528647 67.9700944,23.1988059 C67.9700944,18.9793353 70.7216897,17.2743353 74.2811698,17.2743353 C75.6272135,17.2743353 76.8535944,17.5131 77.870404,18.0521 L82.3574317,17.5131 L82.3574317,20.5956882 L80.1142413,20.5956882 C80.4130746,21.3132765 80.5624913,22.1816294 80.5624913,23.1988059 C80.5624913,27.3878647 77.810896,29.0935118 74.2811698,29.0935118 C73.5334397,29.0935118 72.8458643,29.0035706 72.1880429,28.8534529 L71.7689,29.4222176 C71.5890825,29.6616294 71.4700667,29.8712765 71.4700667,30.1113353 C71.4700667,30.5895118 71.9183167,30.7687471 72.6065389,30.7687471 L77.810896,30.7687471 C81.1912056,30.7687471 82.5967571,32.6542765 82.5967571,34.5986882" id="Fill-7" fill="#077089"></path>
                    <path d="M92.4386583,13.1747647 C92.4386583,11.8586471 93.1566345,11.11 94.4729242,11.11 C95.6993052,11.11 96.4470353,11.8586471 96.4470353,13.1747647 C96.4470353,14.5212941 95.6993052,15.2692941 94.4729242,15.2692941 C93.1566345,15.2692941 92.4386583,14.5212941 92.4386583,13.1747647 L92.4386583,13.1747647 Z M86.6657417,13.1747647 C86.6657417,11.8586471 87.4432258,11.11 88.7304083,11.11 C89.9561425,11.11 90.7038726,11.8586471 90.7038726,13.1747647 C90.7038726,14.5212941 89.9561425,15.2692941 88.7304083,15.2692941 C87.4432258,15.2692941 86.6657417,14.5212941 86.6657417,13.1747647 L86.6657417,13.1747647 Z M98.2122218,17.5132941 L98.2122218,28.2253529 C98.2122218,31.3079412 95.8784758,34.0301176 91.6010194,34.0301176 C87.3242099,34.0301176 84.9607099,31.3079412 84.9607099,28.2253529 L84.9607099,17.5132941 L88.8494242,17.5132941 L88.8494242,27.8668824 C88.8494242,29.4819412 89.6566623,30.6485882 91.6010194,30.6485882 C93.5156226,30.6485882 94.3228607,29.4819412 94.3228607,27.8668824 L94.3228607,17.5132941 L98.2122218,17.5132941 Z" id="Fill-9" fill="#077089"></path>
                    <mask id="mask-4" fill="white">
                        <use xlink:href="#path-3"></use>
                    </mask>
                    <g id="Clip-12"></g>
                    <polygon id="Fill-11" fill="#077089" mask="url(#mask-4)" points="101.83231 33.7913529 105.721024 33.7913529 105.721024 17.5132941 101.83231 17.5132941"></polygon>
                    <path d="M131.20588,22.0913647 L131.20588,33.7914824 L127.317165,33.7914824 L127.317165,23.0483647 C127.317165,21.6423059 126.779007,20.7752471 125.283546,20.7752471 C124.147074,20.7752471 122.950447,21.3129529 122.202717,21.8823647 L122.202717,22.0913647 L122.202717,33.7914824 L118.314003,33.7914824 L118.314003,23.0483647 C118.314003,21.6423059 117.865106,20.7752471 116.369646,20.7752471 C115.113511,20.7752471 113.977038,21.4333059 113.198908,22.0318353 L113.198908,33.7914824 L109.31084,33.7914824 L109.31084,17.5134235 L112.720904,17.5134235 L112.989983,19.0100706 C114.126455,18.1417176 115.742225,17.2740118 117.865106,17.2740118 C119.6898,17.2740118 120.856673,17.9320706 121.515142,19.0391882 C122.740876,18.1417176 124.56557,17.2740118 126.749253,17.2740118 C129.919991,17.2740118 131.20588,19.2786 131.20588,22.0913647" id="Fill-13" fill="#077089" mask="url(#mask-4)"></path>
                    <path d="M144.130357,24.1561294 C144.010047,21.6131882 143.202809,20.4458941 141.138789,20.4458941 C139.314742,20.4458941 138.237777,21.5530118 138.05796,24.1561294 L144.130357,24.1561294 Z M134.020476,25.7724824 C134.020476,20.7448353 136.263666,17.2740118 141.109035,17.2740118 C146.343793,17.2740118 147.929162,20.6555412 147.929162,25.7724824 L147.929162,27.0886 L138.05796,27.0886 C138.208023,29.7221294 139.524313,30.7393059 141.73775,30.7393059 C143.532043,30.7393059 145.206674,30.4099529 146.403948,30.0508353 L147.001615,33.1631882 C145.685325,33.6116 143.830877,34.0302471 141.498424,34.0302471 C136.5625,34.0302471 134.020476,31.0382471 134.020476,25.7724824 L134.020476,25.7724824 Z" id="Fill-14" fill="#077089" mask="url(#mask-4)"></path>
                    <path d="M162.466951,29.0633588 C162.466951,32.3251824 160.074344,34.0301824 156.036213,34.0301824 C153.553697,34.0301824 151.669495,33.6413 150.173388,33.1029471 L150.801455,29.7511824 C152.05759,30.1704765 154.062102,30.6486529 156.125475,30.6486529 C157.740598,30.6486529 158.578237,30.0203588 158.578237,29.0633588 C158.578237,28.0461824 157.800753,27.6275353 156.754189,27.2981824 L154.42109,26.6097118 C152.267162,25.9807706 150.681792,24.6342412 150.681792,21.9424765 C150.681792,19.3089471 152.865475,17.2739471 156.93336,17.2739471 C158.758054,17.2739471 160.19336,17.5437706 161.808483,18.0523588 L161.181062,21.3737118 C159.954681,20.9848294 158.488975,20.5959471 156.93336,20.5959471 C155.318237,20.5959471 154.630662,21.1640647 154.630662,21.9715941 C154.630662,22.7195941 155.228975,23.0489471 156.006459,23.2890059 L158.069832,23.9166529 C161.0614,24.8743 162.466951,26.2208294 162.466951,29.0633588" id="Fill-15" fill="#077089" mask="url(#mask-4)"></path>
                </g>
            </g>
        </g>
    </g>
</svg>